<svg version="1.1" xmlns="http://www.w3.org/2000/svg" viewBox="0 0 235.71429443359375 235.71429443359375" width="235.71429443359375" height="235.71429443359375">
  <!-- svg-source:excalidraw -->
  
  <defs>
    <style>
      @font-face {
        font-family: "Virgil";
        src: url("https://excalidraw.com/Virgil.woff2");
      }
      @font-face {
        font-family: "Cascadia";
        src: url("https://excalidraw.com/Cascadia.woff2");
      }
    </style>
  </defs>
  <rect x="0" y="0" width="235.71429443359375" height="235.71429443359375" fill="#ffffff"></rect><g stroke-linecap="round" transform="translate(10 10) rotate(0 107.85714721679688 107.85714721679688)"><path d="M-0.82 0.19 C61.16 1.33, 123.08 1.47, 216.9 0.89 M-0.56 0.26 C75.15 -2.22, 149.92 -2, 215.31 0.19 M216.13 -0.77 C216.11 82.16, 214.89 163.16, 214.75 215.85 M215.13 0.62 C213.25 73.12, 214.7 148.14, 215.11 216.28 M215.06 215.71 C134.86 214.45, 53 217.08, -1.25 216.26 M216.53 216.29 C139.88 214.4, 63.33 215.02, -0.55 215.73 M-0.42 215.51 C-1.66 157.77, -0.18 98.39, 0.64 1.34 M-0.53 215.96 C0.81 134.61, 1.66 52.93, 0.8 0.29" stroke="#000000" stroke-width="1" fill="none"></path></g><g stroke-linecap="round"><g transform="translate(56.4285888671875 50) rotate(0 62.59570795446638 62.97902968811803)"><path d="M-0.41 0.27 C20.57 21.18, 104.63 104.22, 125.6 125.28 M1.57 -0.63 C22.48 20.45, 104.42 105.69, 124.97 126.59" stroke="#000000" stroke-width="4" fill="none"></path></g></g><g stroke-linecap="round"><g transform="translate(58.29150849146379 50.83364530190181) rotate(88.61442311433147 62.49419318705549 64.82659930897472)"><path d="M0.81 0.13 C21.5 21.97, 104.36 108.83, 125.22 130.51 M-0.23 -0.85 C20.18 20.67, 103.11 106.49, 124.03 128.56" stroke="#000000" stroke-width="4" fill="none"></path></g></g></svg>