<svg version="1.1" xmlns="http://www.w3.org/2000/svg" viewBox="0 0 235.71429443359375 235.71429443359375" width="235.71429443359375" height="235.71429443359375">
  <!-- svg-source:excalidraw -->
  
  <defs>
    <style>
      @font-face {
        font-family: "Virgil";
        src: url("https://excalidraw.com/Virgil.woff2");
      }
      @font-face {
        font-family: "Cascadia";
        src: url("https://excalidraw.com/Cascadia.woff2");
      }
    </style>
  </defs>
  <rect x="0" y="0" width="235.71429443359375" height="235.71429443359375" fill="#ffffff"></rect><g stroke-linecap="round" transform="translate(10 10) rotate(0 107.85714721679688 107.85714721679688)"><path d="M0.82 -0.52 C46.7 -1.39, 93.33 -2.97, 214.2 0.54 M-0.12 0.48 C44.54 1.26, 90.51 1.49, 215.35 -0.58 M215.94 -1.3 C217.57 76.94, 214.39 155.54, 215.55 214.71 M216.42 0.35 C215.93 81.54, 216.71 162.8, 215.38 216.26 M214.76 215.8 C153.64 214.42, 90.48 216.79, 1.67 214.5 M216.2 215.56 C169.49 217.97, 125.18 216.47, 0.51 216.05 M1.43 215.34 C-1.77 149.3, -0.71 79.64, 0.67 -1.56 M0.2 216.19 C0.7 152.65, 0.62 88.99, -0.05 -0.17" stroke="#000000" stroke-width="1" fill="none"></path></g><g stroke-linecap="round"><g transform="translate(35 77.14285278320312) rotate(0 82.83012105077506 -0.06606058928434777)"><path d="M-0.34 -0.06 C27.14 0.2, 138.39 0.95, 166 1.01 M1.69 -1.14 C28.99 -1.15, 138.4 -1.06, 165.57 -0.59" stroke="#000000" stroke-width="4" fill="none"></path></g></g><g stroke-linecap="round"><g transform="translate(33.57135009765625 155.00003051757812) rotate(0 81.98827434629203 -0.20793127174022175)"><path d="M-0.63 0.31 C26.7 0.59, 137.07 0.64, 164.61 0.68 M1.24 -0.58 C28.33 -0.56, 136.39 -0.93, 163.45 -1.09" stroke="#000000" stroke-width="4" fill="none"></path></g></g></svg>