<svg version="1.1" xmlns="http://www.w3.org/2000/svg" viewBox="0 0 494 228.61973467524115" width="494" height="228.61973467524115">
  <!-- svg-source:excalidraw -->
  
  <defs>
    <style>
      @font-face {
        font-family: "Virgil";
        src: url("https://excalidraw.com/Virgil.woff2");
      }
      @font-face {
        font-family: "Cascadia";
        src: url("https://excalidraw.com/Cascadia.woff2");
      }
    </style>
  </defs>
  <rect x="0" y="0" width="494" height="228.61973467524115" fill="#ffffff"></rect><g stroke-linecap="round" transform="translate(16.43604811668581 65.20696523286387) rotate(13.15754704632174 235.70675889015018 6.842369231784062)"><path d="M1.69 -2 L469.72 1.77 L471.99 13.14 L-0.79 14.24" stroke="none" stroke-width="0" fill="#000"></path><path d="M-0.84 -0.05 C150.9 -1.27, 302.65 -2.2, 471.05 0.15 M-0.34 0.3 C158.05 2.1, 317.23 1.89, 471.51 0.03 M470.16 0.57 C471.21 3.95, 470.32 7.24, 471.78 13.34 M471.05 0.31 C470.96 4.6, 471.96 7.95, 471.02 13.53 M471.8 13.31 C353.47 16.13, 233.53 15.31, 0.21 13.18 M470.97 13.28 C313 13.89, 154.82 14.43, 0.25 14 M0.82 13.88 C-0.93 11.05, 0.43 8.3, -1.27 -0.45 M0.32 13.96 C-0.25 10.21, -0.75 8.03, -0.62 0.63" stroke="#000000" stroke-width="1" fill="none"></path></g><g stroke-linecap="round" transform="translate(65.16483039564434 63.95834094344252) rotate(16.260083290391773 183.04940300279327 5.948110220424212)"><path d="M0.77 1.15 L367.99 1.85 L365.22 11.42 L0.67 12.73" stroke="none" stroke-width="0" fill="#000"></path><path d="M1.07 1.09 C102.66 -1.55, 204.6 -0.98, 366.99 -0.05 M-0.14 0.08 C82.83 1.68, 165.72 1.75, 365.84 -0.07 M365.66 -1.16 C367.32 1.95, 365.9 6.06, 364.93 11.67 M365.69 0.17 C365.49 3.05, 366.45 5.5, 366.5 11.85 M366.95 11.05 C236.48 9.62, 106.75 9.19, -0.91 12.37 M366.15 11.93 C288.93 12.34, 211.7 13.44, -0.36 11.91 M0.76 12.29 C0.06 8.46, -0.13 7.5, -1.06 0.54 M-0.42 11.82 C-0.64 8.91, 0.14 5.09, 0.07 -0.38" stroke="#000000" stroke-width="1" fill="none"></path></g><g stroke-linecap="round" transform="translate(61.06098151845458 62.557852083849866) rotate(344.87591020498905 191.08179497080323 6.634335164001243)"><path d="M1.15 1.89 L384.01 -0.88 L381.69 13.94 L0.84 13.5" stroke="none" stroke-width="0" fill="#000"></path><path d="M1.04 0.28 C150.99 -2.08, 302.86 -1.1, 382.12 -0.87 M0.07 -0.18 C107.6 0.21, 214.85 0.26, 382.09 -0.44 M380.88 1.25 C381.21 4.76, 382.79 8.87, 381.91 12.27 M382.36 -0.6 C382.61 3.72, 382.36 6.96, 382.12 13.64 M381.36 13.76 C277.66 15.69, 173.24 13.95, 0.46 12.22 M382.19 13.58 C253.67 14.03, 126.72 13.11, 0.01 12.71 M0.44 13.38 C-1.16 8.73, 0.52 3.2, 0.61 -0.11 M-0.09 12.67 C0.59 8.34, 0.2 2.94, -0.43 0.25" stroke="#000000" stroke-width="1" fill="none"></path></g><g stroke-linecap="round" transform="translate(113.83872054146161 58.63775547684941) rotate(19.33486623082626 126.87542130424157 8.054508064946958)"><path d="M-1.92 1 L252.19 0.46 L253.05 14.66 L1.78 16.33" stroke="none" stroke-width="0" fill="#000"></path><path d="M0.62 0.93 C83.06 2.82, 162.33 0.95, 254.29 0.68 M-0.06 0.04 C78.95 -1.02, 158.83 -2.49, 253.91 0.63 M254.34 -1.15 C252.13 3, 252.88 6.66, 254.75 14.82 M254.23 -0.71 C253.81 4.82, 253.78 9.81, 253.74 15.63 M252.66 16.51 C203.14 13.42, 151.21 14.21, -1.35 14.52 M254.02 16.3 C184.63 14.54, 115.03 13.65, 0.6 15.69 M0.17 16.08 C-1.14 12.53, 0.05 7.66, 1.27 0.41 M0.4 16.35 C-0.16 12.4, 0.58 8.87, 0.61 0.07" stroke="#000000" stroke-width="1" fill="none"></path></g><g stroke-linecap="round" transform="translate(125.26730940864911 60.78060826005253) rotate(341.7677185938399 126.87542130424157 8.054508064946958)"><path d="M-0.61 -0.32 L253.19 1.21 L255.17 16.27 L-1.85 14.42" stroke="none" stroke-width="0" fill="#000"></path><path d="M0.14 0.15 C77.83 -1.26, 156.28 -1.91, 252.46 0.67 M-0.54 -0.3 C55.31 1.13, 110.57 2.39, 253.6 0.45 M252.39 -1.35 C252.25 4.9, 254.49 11.63, 253.5 15.81 M254.11 0.52 C253.68 3.26, 253.71 6.75, 254.46 16.24 M253.26 15.32 C170.41 15.01, 84.45 13.67, -0.54 16.81 M254.36 16.3 C188.65 17.1, 124.84 17.12, 0.56 16.38 M-0.91 14.52 C0.8 11.21, 1.16 7.62, -1.43 0.95 M0.43 15.69 C0.25 12.15, -0.26 6.93, 0.67 0.48" stroke="#000000" stroke-width="1" fill="none"></path></g><g stroke-linecap="round" transform="translate(14.29322585106081 62.34978749848892) rotate(347.12487215022935 235.70675889015018 6.842369231784062)"><path d="M-0.64 -0.72 L472.8 -0.71 L472.63 15.43 L-1.95 15.58" stroke="none" stroke-width="0" fill="#000"></path><path d="M0.58 -0.75 C165.06 1.57, 329.09 1.59, 471.3 -0.6 M-0.2 0.37 C97.07 -1.87, 194.58 -1.66, 471.73 0.31 M470.19 -0.7 C470.44 4.88, 472.13 10.48, 472.5 14.07 M471.55 -0.32 C471.57 4.72, 471.2 8.45, 472.02 13.07 M471.06 13.89 C319.2 13.42, 167.35 13.37, 0.46 13.61 M471.12 13.52 C368.3 11.65, 265.38 11.93, -0.32 13.93 M1.17 12.98 C-0.33 11.82, 0.29 8.69, 0.12 -0.27 M-0.5 14.15 C0.33 10.16, 0.2 5.9, 0.54 -0.62" stroke="#000000" stroke-width="1" fill="none"></path></g><g transform="translate(10 133.36793611409) rotate(0 237 42.62589928057557)"><text x="0" y="60.251798561151105" font-family="Virgil, Segoe UI Emoji" font-size="68.2014388489209px" fill="#000000" text-anchor="start" style="white-space: pre;" direction="ltr">LE SSERAFIM</text></g></svg>